<svg xmlns="http://www.w3.org/2000/svg" viewBox="0 0 512 512">
  <defs>
    <style>.cls-1{fill:#fff;stroke:#e5e7eb;stroke-width:10px;}.cls-2{fill:#84cc16;opacity:0.3;}.cls-3{fill:#ef4444;}.cls-4{fill:#3b82f6;}.cls-5{fill:#facc15;}</style>
  </defs>
  <!-- 背景圓 -->
  <circle class="cls-1" cx="256" cy="256" r="240"/>
  
  <!-- 濟州島輪廓 (示意) -->
  <path class="cls-2" d="M153.6,307.2C153.6,307.2,204.8,230.4,281.6,230.4C358.4,230.4,409.6,256,435.2,307.2C435.2,358.4,358.4,409.6,281.6,409.6C204.8,409.6,153.6,358.4,153.6,307.2Z"/>
  
  <!-- 太極紅 -->
  <path class="cls-3" d="M256,102.4A76.8,76.8,0,0,1,332.8,179.2A76.8,76.8,0,0,0,409.6,256A153.6,153.6,0,0,1,102.4,256A76.8,76.8,0,0,0,179.2,179.2A76.8,76.8,0,0,1,256,102.4"/>
  
  <!-- 太極藍 -->
  <path class="cls-4" d="M256,409.6A76.8,76.8,0,0,1,179.2,332.8A76.8,76.8,0,0,0,102.4,256A153.6,153.6,0,0,1,409.6,256A76.8,76.8,0,0,0,332.8,332.8A76.8,76.8,0,0,1,256,409.6"/>
  
  <!-- 油菜花點綴 -->
  <circle class="cls-5" cx="128" cy="384" r="20"/>
  <circle class="cls-5" cx="180" cy="420" r="15"/>
</svg>